# xmcd
#
# Track frame offsets: 
#        150
#        9550
#        21457
#        37942
#        50605
#
# Disc length: 858 seconds
#
# Revision: 0
# Processed by: cddbd v1.5.2PL0 Copyright (c) Steve Scherf et al.
# Submitted via: ExactAudioCopy v0.95b4
#
DISCID=37035805
DTITLE=The Rolling Stones - Five By Five
DYEAR=1964
DGENRE=Acid Jazz
TTITLE0=If You Need Me
TTITLE1=Empty Heart
TTITLE2=2120 South Michigan Avenue (Fade Out)
TTITLE3=Confessin' The Blues
TTITLE4=Around And Around
EXTD=
EXTT0=
EXTT1=
EXTT2=
EXTT3=
EXTT4=
PLAYORDER=
